<mxfile host="65bd71144e" modified="2021-01-26T07:18:48.493Z" agent="5.0 (Windows NT 6.3; Win64; x64) AppleWebKit/537.36 (KHTML, like Gecko) Code/1.52.1 Chrome/83.0.4103.122 Electron/9.3.5 Safari/537.36" etag="JsA28A5I1rDQhFfJ-IyH" version="13.10.0" type="embed">
    <diagram id="MvE5dEB0sFrg0qifoJeW" name="Page-1">
        <mxGraphModel dx="617" dy="419" grid="1" gridSize="10" guides="1" tooltips="1" connect="1" arrows="1" fold="1" page="1" pageScale="1" pageWidth="850" pageHeight="1100" math="0" shadow="0">
            <root>
                <mxCell id="0"/>
                <mxCell id="1" parent="0"/>
                <mxCell id="aBFNEXDiyIlQz1ZyQnsL-4" value="" style="edgeStyle=orthogonalEdgeStyle;rounded=0;orthogonalLoop=1;jettySize=auto;html=1;" parent="1" source="aBFNEXDiyIlQz1ZyQnsL-1" target="aBFNEXDiyIlQz1ZyQnsL-3" edge="1">
                    <mxGeometry relative="1" as="geometry"/>
                </mxCell>
                <mxCell id="aBFNEXDiyIlQz1ZyQnsL-1" value="Desktop APP" style="rounded=0;whiteSpace=wrap;html=1;fillColor=#0050ef;strokeColor=#001DBC;fontColor=#ffffff;" parent="1" vertex="1">
                    <mxGeometry x="140" y="150" width="120" height="60" as="geometry"/>
                </mxCell>
                <mxCell id="aBFNEXDiyIlQz1ZyQnsL-6" value="" style="edgeStyle=orthogonalEdgeStyle;rounded=0;orthogonalLoop=1;jettySize=auto;html=1;" parent="1" source="aBFNEXDiyIlQz1ZyQnsL-3" target="aBFNEXDiyIlQz1ZyQnsL-5" edge="1">
                    <mxGeometry relative="1" as="geometry"/>
                </mxCell>
                <mxCell id="aBFNEXDiyIlQz1ZyQnsL-8" value="" style="edgeStyle=orthogonalEdgeStyle;rounded=0;orthogonalLoop=1;jettySize=auto;html=1;" parent="1" source="aBFNEXDiyIlQz1ZyQnsL-3" target="aBFNEXDiyIlQz1ZyQnsL-7" edge="1">
                    <mxGeometry relative="1" as="geometry"/>
                </mxCell>
                <mxCell id="aBFNEXDiyIlQz1ZyQnsL-23" style="edgeStyle=orthogonalEdgeStyle;rounded=0;orthogonalLoop=1;jettySize=auto;html=1;entryX=0;entryY=0.5;entryDx=0;entryDy=0;" parent="1" source="aBFNEXDiyIlQz1ZyQnsL-3" target="aBFNEXDiyIlQz1ZyQnsL-2" edge="1">
                    <mxGeometry relative="1" as="geometry">
                        <Array as="points">
                            <mxPoint x="310" y="355"/>
                            <mxPoint x="310" y="180"/>
                        </Array>
                    </mxGeometry>
                </mxCell>
                <mxCell id="aBFNEXDiyIlQz1ZyQnsL-24" value="Check unique User" style="edgeLabel;html=1;align=center;verticalAlign=middle;resizable=0;points=[];labelBackgroundColor=#FFFF99;fontColor=#000000;" parent="aBFNEXDiyIlQz1ZyQnsL-23" vertex="1" connectable="0">
                    <mxGeometry x="0.1184" y="-1" relative="1" as="geometry">
                        <mxPoint as="offset"/>
                    </mxGeometry>
                </mxCell>
                <mxCell id="aBFNEXDiyIlQz1ZyQnsL-3" value="Konfiguration&lt;br&gt;Username&lt;br&gt;Bild&lt;br&gt;Statement&lt;br&gt;Server URL&lt;br&gt;Password" style="rounded=0;whiteSpace=wrap;html=1;fillColor=#60a917;strokeColor=#2D7600;fontColor=#ffffff;" parent="1" vertex="1">
                    <mxGeometry x="140" y="290" width="120" height="130" as="geometry"/>
                </mxCell>
                <mxCell id="aBFNEXDiyIlQz1ZyQnsL-11" value="" style="edgeStyle=orthogonalEdgeStyle;rounded=0;orthogonalLoop=1;jettySize=auto;html=1;" parent="1" source="aBFNEXDiyIlQz1ZyQnsL-7" target="aBFNEXDiyIlQz1ZyQnsL-10" edge="1">
                    <mxGeometry relative="1" as="geometry"/>
                </mxCell>
                <mxCell id="aBFNEXDiyIlQz1ZyQnsL-20" style="edgeStyle=orthogonalEdgeStyle;rounded=0;orthogonalLoop=1;jettySize=auto;html=1;exitX=0.75;exitY=0;exitDx=0;exitDy=0;entryX=0;entryY=0.25;entryDx=0;entryDy=0;" parent="1" source="aBFNEXDiyIlQz1ZyQnsL-7" target="aBFNEXDiyIlQz1ZyQnsL-18" edge="1">
                    <mxGeometry relative="1" as="geometry">
                        <Array as="points">
                            <mxPoint x="230" y="450"/>
                            <mxPoint x="430" y="450"/>
                            <mxPoint x="430" y="305"/>
                        </Array>
                    </mxGeometry>
                </mxCell>
                <mxCell id="aBFNEXDiyIlQz1ZyQnsL-7" value="Chatfenster" style="rounded=0;whiteSpace=wrap;html=1;fillColor=#6a00ff;strokeColor=#3700CC;fontColor=#ffffff;" parent="1" vertex="1">
                    <mxGeometry x="140" y="500" width="120" height="130" as="geometry"/>
                </mxCell>
                <mxCell id="aBFNEXDiyIlQz1ZyQnsL-13" value="" style="edgeStyle=orthogonalEdgeStyle;rounded=0;orthogonalLoop=1;jettySize=auto;html=1;" parent="1" source="aBFNEXDiyIlQz1ZyQnsL-10" target="aBFNEXDiyIlQz1ZyQnsL-12" edge="1">
                    <mxGeometry relative="1" as="geometry"/>
                </mxCell>
                <mxCell id="aBFNEXDiyIlQz1ZyQnsL-17" style="edgeStyle=orthogonalEdgeStyle;rounded=0;orthogonalLoop=1;jettySize=auto;html=1;entryX=0;entryY=0.5;entryDx=0;entryDy=0;" parent="1" source="aBFNEXDiyIlQz1ZyQnsL-10" target="aBFNEXDiyIlQz1ZyQnsL-18" edge="1">
                    <mxGeometry relative="1" as="geometry">
                        <mxPoint x="400" y="260" as="targetPoint"/>
                    </mxGeometry>
                </mxCell>
                <mxCell id="aBFNEXDiyIlQz1ZyQnsL-25" value="block users" style="edgeLabel;html=1;align=center;verticalAlign=middle;resizable=0;points=[];labelBackgroundColor=#FFFF99;fontColor=#000000;" parent="aBFNEXDiyIlQz1ZyQnsL-17" vertex="1" connectable="0">
                    <mxGeometry x="0.3766" y="3" relative="1" as="geometry">
                        <mxPoint as="offset"/>
                    </mxGeometry>
                </mxCell>
                <mxCell id="aBFNEXDiyIlQz1ZyQnsL-10" value="Anzeige Personen&lt;br&gt;(nur aktive)" style="rounded=0;whiteSpace=wrap;html=1;fillColor=#6a00ff;strokeColor=#3700CC;fontColor=#ffffff;" parent="1" vertex="1">
                    <mxGeometry x="340" y="500" width="120" height="130" as="geometry"/>
                </mxCell>
                <mxCell id="aBFNEXDiyIlQz1ZyQnsL-16" value="" style="edgeStyle=orthogonalEdgeStyle;rounded=0;orthogonalLoop=1;jettySize=auto;html=1;" parent="1" source="aBFNEXDiyIlQz1ZyQnsL-12" target="aBFNEXDiyIlQz1ZyQnsL-15" edge="1">
                    <mxGeometry relative="1" as="geometry"/>
                </mxCell>
                <mxCell id="aBFNEXDiyIlQz1ZyQnsL-21" style="edgeStyle=orthogonalEdgeStyle;rounded=0;orthogonalLoop=1;jettySize=auto;html=1;entryX=0.25;entryY=1;entryDx=0;entryDy=0;" parent="1" source="aBFNEXDiyIlQz1ZyQnsL-12" target="aBFNEXDiyIlQz1ZyQnsL-18" edge="1">
                    <mxGeometry relative="1" as="geometry"/>
                </mxCell>
                <mxCell id="aBFNEXDiyIlQz1ZyQnsL-22" value="verschlüsselte Übertragung zB AES" style="edgeLabel;html=1;align=center;verticalAlign=middle;resizable=0;points=[];labelBackgroundColor=#FFFF99;fontColor=#000000;" parent="aBFNEXDiyIlQz1ZyQnsL-21" vertex="1" connectable="0">
                    <mxGeometry x="0.5227" y="1" relative="1" as="geometry">
                        <mxPoint as="offset"/>
                    </mxGeometry>
                </mxCell>
                <mxCell id="aBFNEXDiyIlQz1ZyQnsL-12" value="Chatverlauf / Person&lt;br&gt;(Start mit Aktivierung)" style="rounded=0;whiteSpace=wrap;html=1;fillColor=#6a00ff;strokeColor=#3700CC;fontColor=#ffffff;" parent="1" vertex="1">
                    <mxGeometry x="340" y="710" width="120" height="130" as="geometry"/>
                </mxCell>
                <mxCell id="aBFNEXDiyIlQz1ZyQnsL-15" value="lokal gespeichert" style="rounded=0;whiteSpace=wrap;html=1;fillColor=#60a917;strokeColor=#2D7600;fontColor=#ffffff;" parent="1" vertex="1">
                    <mxGeometry y="710" width="120" height="130" as="geometry"/>
                </mxCell>
                <mxCell id="aBFNEXDiyIlQz1ZyQnsL-5" value="lokal gespeichert&lt;br&gt;AutoLogin" style="rounded=0;whiteSpace=wrap;html=1;fillColor=#60a917;strokeColor=#2D7600;fontColor=#ffffff;" parent="1" vertex="1">
                    <mxGeometry y="290" width="120" height="130" as="geometry"/>
                </mxCell>
                <mxCell id="aBFNEXDiyIlQz1ZyQnsL-19" value="" style="edgeStyle=orthogonalEdgeStyle;rounded=0;orthogonalLoop=1;jettySize=auto;html=1;" parent="1" source="aBFNEXDiyIlQz1ZyQnsL-2" target="aBFNEXDiyIlQz1ZyQnsL-18" edge="1">
                    <mxGeometry relative="1" as="geometry"/>
                </mxCell>
                <mxCell id="aBFNEXDiyIlQz1ZyQnsL-26" style="edgeStyle=orthogonalEdgeStyle;rounded=0;orthogonalLoop=1;jettySize=auto;html=1;" parent="1" source="aBFNEXDiyIlQz1ZyQnsL-2" edge="1">
                    <mxGeometry relative="1" as="geometry">
                        <mxPoint x="800" y="240" as="targetPoint"/>
                    </mxGeometry>
                </mxCell>
                <mxCell id="aBFNEXDiyIlQz1ZyQnsL-2" value="HerokuAPP&lt;br&gt;(NodeJS-Server)" style="rounded=0;whiteSpace=wrap;html=1;fillColor=#d80073;strokeColor=#A50040;fontColor=#ffffff;" parent="1" vertex="1">
                    <mxGeometry x="600" y="150" width="120" height="60" as="geometry"/>
                </mxCell>
                <mxCell id="aBFNEXDiyIlQz1ZyQnsL-18" value="SocketIO&lt;br&gt;Connections" style="rounded=0;whiteSpace=wrap;html=1;fillColor=#d80073;strokeColor=#A50040;fontColor=#ffffff;" parent="1" vertex="1">
                    <mxGeometry x="600" y="290" width="120" height="60" as="geometry"/>
                </mxCell>
                <mxCell id="aBFNEXDiyIlQz1ZyQnsL-27" value="&lt;span style=&quot;background-color: rgb(255 , 0 , 128)&quot;&gt;User&lt;/span&gt;" style="shape=cylinder;whiteSpace=wrap;html=1;boundedLbl=1;backgroundOutline=1;labelBackgroundColor=#FFD966;fillColor=#d80073;strokeColor=#A50040;fontColor=#ffffff;" parent="1" vertex="1">
                    <mxGeometry x="770" y="240" width="60" height="80" as="geometry"/>
                </mxCell>
            </root>
        </mxGraphModel>
    </diagram>
</mxfile>